<svg xmlns="http://www.w3.org/2000/svg" width="150" height="150" viewBox="-0.635 -0.233 1.27 0.467"><path fill="none" stroke="#000" stroke-linecap="round" stroke-linejoin="round" stroke-width=".02" d="M-0.511850799999999,-0.04616140000000257 L-0.24726749999999953,-0.04616140000000257"/><path fill="none" stroke="#000" stroke-linecap="round" stroke-linejoin="round" stroke-width=".02" d="M0.2818991000000013,-0.04616140000000257 L0.5464825000000006,-0.04616140000000257"/><path fill="none" stroke="#000" stroke-linecap="round" stroke-linejoin="round" stroke-width=".02" d="M0.0173157000000006,-0.17845310000000225 L0.2818990000000001,-0.17845310000000225 L0.2818990000000001,0.0861302999999971 L-0.24726770000000053,0.0861302999999971 L-0.24726770000000053,-0.17845310000000225 L0.017315699999998824,-0.17845310000000225"/><text x="0" y="-.229" dx="0" dy="0" text-anchor="middle" style="font:.1px monospace;fill:#000">{REF}</text><rect width=".025" height=".025" x="-.013" y="-.242" fill="#00f"/><text x="0" y=".159" dx="0" dy=".075" text-anchor="middle" style="font:.1px monospace;fill:#000">{VAL}</text><rect width=".025" height=".025" x="-.013" y=".147" fill="#00f"/><rect width=".05" height=".05" x="-.559" y="-.071" fill="red"/><text x="-.574" y=".044" text-anchor="middle" style="font:.08px monospace;fill:#833">1</text><rect width=".05" height=".05" x=".544" y="-.07" fill="red"/><text x=".529" y=".045" text-anchor="middle" style="font:.08px monospace;fill:#833">2</text><path fill="green" d="M 1.1102230246251565e-16 -0.02500000000000089 L 0.025000000000000112 -8.881784197001252e-16 L 1.1102230246251565e-16 0.024999999999999113 L -0.02499999999999989 -8.881784197001252e-16 Z"/><text x="-.529" y="-.194" style="font:.05px monospace;fill:#833">1.06 x 0.39</text><text x="-.529" y="-.194" style="font:.05px monospace;fill:#833">1.06 x 0.39</text></svg>