<svg xmlns="http://www.w3.org/2000/svg" width="150" height="150" viewBox="-0.644 -0.851 1.288 1.702"><path fill="none" stroke="#000" stroke-linecap="round" stroke-linejoin="round" stroke-width=".02" d="M0.52188525,0.010083950000000286 L0.1314137500000001,0.010083950000000286"/><path fill="none" stroke="#000" stroke-linecap="round" stroke-linejoin="round" stroke-width=".02" d="M0.12501034999999971,-0.25449935000000146 L0.12501035000000016,0.2746672499999985"/><path fill="none" stroke="#000" stroke-linecap="round" stroke-linejoin="round" stroke-width=".02" d="M0.07157854999999946,-0.253778650000001 L0.07157854999999991,0.27538794999999716"/><path fill="none" stroke="#000" stroke-linecap="round" stroke-linejoin="round" stroke-width=".02" d="M-0.13957305000000053,-0.25449935000000146 L-0.1395730500000001,0.2746672499999985"/><path fill="none" stroke="#000" stroke-linecap="round" stroke-linejoin="round" stroke-width=".02" d="M-0.08349325000000052,-0.25541165000000277 L-0.08349325000000007,0.27375494999999894"/><path fill="none" stroke="#000" stroke-linecap="round" stroke-linejoin="round" stroke-width=".02" d="M0.07147894999999993,-0.2552525499999998 L-0.0829032500000002,-0.2552525499999998"/><path fill="none" stroke="#000" stroke-linecap="round" stroke-linejoin="round" stroke-width=".02" d="M0.07107315000000014,0.27817384999999817 L-0.08330905,0.27817384999999817"/><path fill="none" stroke="#000" stroke-linecap="round" stroke-linejoin="round" stroke-width=".02" d="M-0.21327535000000042,-0.31803495000000304 L0.19712464999999968,-0.31807695"/><path fill="none" stroke="#000" stroke-linecap="round" stroke-linejoin="round" stroke-width=".02" d="M0.003324649999999707,-0.694594949999999 L0.003324649999999707,-0.3310069500000008 L0.003324649999999707,-0.3209089500000015"/><path fill="none" stroke="#000" stroke-linecap="round" stroke-linejoin="round" stroke-width=".02" d="M-0.21327535000000042,-0.3180639499999991 L-0.21327535000000042,-0.2498769499999991"/><path fill="none" stroke="#000" stroke-linecap="round" stroke-linejoin="round" stroke-width=".02" d="M0.19712464999999968,-0.31807695 L0.19712464999999968,-0.24987695000000443"/><path fill="none" stroke="#000" stroke-linecap="round" stroke-linejoin="round" stroke-width=".02" d="M0.19226054999999942,0.3468980499999983 L-0.21813945000000068,0.3469400500000006"/><path fill="none" stroke="#000" stroke-linecap="round" stroke-linejoin="round" stroke-width=".02" d="M-0.024339450000000262,0.7234580499999996 L-0.024339450000000262,0.3598700499999996 L-0.024339450000000262,0.34977205000000033"/><path fill="none" stroke="#000" stroke-linecap="round" stroke-linejoin="round" stroke-width=".02" d="M0.19226054999999942,0.3469270499999997 L0.19226054999999942,0.2787400499999979"/><path fill="none" stroke="#000" stroke-linecap="round" stroke-linejoin="round" stroke-width=".02" d="M-0.21813955000000096,0.34694015 L-0.21813955000000096,0.27874015000000085"/><path fill="none" stroke="#000" stroke-linecap="round" stroke-linejoin="round" stroke-width=".02" d="M-0.14368304999999992,0.010083950000000286 L-0.5364480500000002,0.010083950000000286"/><text x=".532" y="-.276" dx="0" dy="0" text-anchor="start" style="font:.1px monospace;fill:#000">{REF}</text><rect width=".025" height=".025" x=".519" y="-.288" fill="#00f"/><text x=".537" y=".279" dx="0" dy=".1" text-anchor="start" style="font:.1px monospace;fill:#000">{VAL}</text><rect width=".025" height=".025" x=".524" y=".266" fill="#00f"/><rect width=".05" height=".05" x="-.022" y="-.736" fill="red"/><text x="-.037" y="-.621" text-anchor="middle" style="font:.08px monospace;fill:#833">4</text><rect width=".05" height=".05" x="-.049" y=".686" fill="red"/><text x="-.064" y=".801" text-anchor="middle" style="font:.08px monospace;fill:#833">2</text><rect width=".05" height=".05" x="-.567" y="-.019" fill="red"/><text x="-.582" y=".096" text-anchor="middle" style="font:.08px monospace;fill:#833">1</text><rect width=".05" height=".05" x=".517" y="-.013" fill="red"/><text x=".502" y=".102" text-anchor="middle" style="font:.08px monospace;fill:#833">3</text><path fill="green" d="M -3.3306690738754696e-16 -0.025 L 0.02499999999999967 0 L -3.3306690738754696e-16 0.025 L -0.025000000000000334 0 Z"/><text x="-.537" y="-.709" style="font:.05px monospace;fill:#833">1.07 x 1.42</text><text x="-.537" y="-.759" dy="-.15" style="font:.05px monospace;fill:#833">4 [gnd1]</text><text x="-.537" y="-.809" dy="-.15" style="font:.05px monospace;fill:#833">2 [gnd2]</text><text x="-.537" y="-.709" style="font:.05px monospace;fill:#833">1.07 x 1.42</text><text x="-.537" y="-.759" dy="-.15" style="font:.05px monospace;fill:#833">4 [gnd1]</text><text x="-.537" y="-.809" dy="-.15" style="font:.05px monospace;fill:#833">2 [gnd2]</text></svg>