<svg xmlns="http://www.w3.org/2000/svg" width="150" height="150" viewBox="-0.635 -0.492 1.27 1.008"><path fill="none" stroke="#000" stroke-linecap="round" stroke-linejoin="round" stroke-width=".02" d="M0.5229378000000002,0.012283099999995883 L0.13246630000000037,0.012283099999995883"/><path fill="none" stroke="#000" stroke-linecap="round" stroke-linejoin="round" stroke-width=".02" d="M-0.14263049999999966,0.012283099999995883 L-0.5353954999999999,0.012283099999995883"/><path fill="none" stroke="#000" stroke-linecap="round" stroke-linejoin="round" stroke-width=".02" d="M0.12606289999999998,0.2768663999999976 L0.12606290000000042,-0.2523002000000023"/><path fill="none" stroke="#000" stroke-linecap="round" stroke-linejoin="round" stroke-width=".02" d="M0.07263109999999973,0.27614569999999716 L0.07263110000000017,-0.253020900000001"/><path fill="none" stroke="#000" stroke-linecap="round" stroke-linejoin="round" stroke-width=".02" d="M-0.13852050000000027,0.2768663999999976 L-0.13852049999999982,-0.2523002000000023"/><path fill="none" stroke="#000" stroke-linecap="round" stroke-linejoin="round" stroke-width=".02" d="M-0.08244070000000026,0.27777869999999893 L-0.08244069999999981,-0.2513879000000028"/><path fill="none" stroke="#000" stroke-linecap="round" stroke-linejoin="round" stroke-width=".02" d="M0.07253150000000019,0.27761959999999597 L-0.08185069999999994,0.27761959999999597"/><path fill="none" stroke="#000" stroke-linecap="round" stroke-linejoin="round" stroke-width=".02" d="M0.0721257000000004,-0.255806800000002 L-0.08225649999999973,-0.255806800000002"/><text x="-.013" y=".415" dx="0" dy=".075" text-anchor="middle" style="font:.1px monospace;fill:#000">{VAL}</text><rect width=".025" height=".025" x="-.025" y=".403" fill="#00f"/><text x="-.004" y="-.425" dx="0" dy="0" text-anchor="middle" style="font:.1px monospace;fill:#000">{REF}</text><rect width=".025" height=".025" x="-.016" y="-.438" fill="#00f"/><rect width=".05" height=".05" x="-.576" y="-.014" fill="red"/><text x="-.591" y=".101" text-anchor="middle" style="font:.08px monospace;fill:#833">1</text><rect width=".05" height=".05" x=".526" y="-.013" fill="red"/><text x=".511" y=".102" text-anchor="middle" style="font:.08px monospace;fill:#833">2</text><path fill="green" d="M -1.1102230246251565e-16 -0.013346350000002262 L 0.02499999999999989 0.01165364999999774 L -1.1102230246251565e-16 0.03665364999999774 L -0.025000000000000112 0.01165364999999774 Z"/><text x="-.529" y="-.432" style="font:.05px monospace;fill:#833">1.06 x 0.84</text><text x="-.529" y="-.432" style="font:.05px monospace;fill:#833">1.06 x 0.84</text></svg>