<svg xmlns="http://www.w3.org/2000/svg" width="150" height="150" viewBox="-0.429 -0.638 0.858 1.187"><path fill="none" stroke="#000" stroke-linecap="round" stroke-linejoin="round" stroke-width=".02" d="M-0.3543580999999998,-0.22373490000000018 L-0.1279290999999998,-0.22373490000000018"/><path fill="none" stroke="#000" stroke-linecap="round" stroke-linejoin="round" stroke-width=".02" d="M-0.07134165999999999,-0.215546000000001 L0.1083980000000001,-0.16078"/><path fill="none" stroke="#000" stroke-linecap="round" stroke-linejoin="round" stroke-width=".02" d="M0.10434800000000011,-0.127178 L0.345089,-0.127178"/><path fill="none" stroke="#000" stroke-linecap="round" stroke-linejoin="round" stroke-width=".02" d="M0.12008600000000014,-0.36383770000000015 L0.360827,-0.36383770000000015"/><path fill="none" stroke="#000" stroke-linecap="round" stroke-linejoin="round" stroke-width=".02" d="M-0.3543580999999998,0.17811849999999985 L-0.1279290999999998,0.17811849999999985"/><path fill="none" stroke="#000" stroke-linecap="round" stroke-linejoin="round" stroke-width=".02" d="M-0.07134165999999999,0.1867987999999997 L0.10434800000000011,0.2376754"/><path fill="none" stroke="#000" stroke-linecap="round" stroke-linejoin="round" stroke-width=".02" d="M0.10434800000000011,0.2746754 L0.345089,0.2746754"/><path fill="none" stroke="#000" stroke-linecap="round" stroke-linejoin="round" stroke-width=".02" d="M0.12008600000000014,0.038015699999999875 L0.360827,0.038015699999999875"/><path fill="none" stroke="#000" stroke-linecap="round" stroke-linejoin="round" stroke-width=".02" d="M-0.001896399999999815,0.19827304999999998 L-0.001896399999999815,-0.190981"/><text x="0" y="-.564" dx="0" dy="0" text-anchor="middle" style="font:.1px monospace;fill:#000">{REF}</text><rect width=".025" height=".025" x="-.013" y="-.577" fill="#00f"/><text x="0" y=".424" dx="0" dy=".075" text-anchor="middle" style="font:.1px monospace;fill:#000">{VAL}</text><rect width=".025" height=".025" x="-.013" y=".412" fill="#00f"/><circle cx=".082" cy="-.127" r=".023" fill="none" stroke="#000" stroke-width=".02"/><circle cx=".082" cy=".275" r=".023" fill="none" stroke="#000" stroke-width=".02"/><circle cx=".082" cy="-.369" r=".023" fill="none" stroke="#000" stroke-width=".02"/><circle cx=".082" cy=".038" r=".023" fill="none" stroke="#000" stroke-width=".02"/><circle cx="-.1" cy="-.219" r=".023" fill="none" stroke="#000" stroke-width=".02"/><circle cx="-.1" cy=".183" r=".023" fill="none" stroke="#000" stroke-width=".02"/><rect width=".05" height=".05" x="-.393" y="-.249" fill="red"/><text x="-.408" y="-.134" text-anchor="middle" style="font:.08px monospace;fill:#833">1</text><rect width=".05" height=".05" x="-.393" y=".153" fill="red"/><text x="-.408" y=".268" text-anchor="middle" style="font:.08px monospace;fill:#833">4</text><rect width=".05" height=".05" x=".343" y="-.389" fill="red"/><text x=".328" y="-.274" text-anchor="middle" style="font:.08px monospace;fill:#833">3</text><rect width=".05" height=".05" x=".343" y="-.152" fill="red"/><text x=".328" y="-.037" text-anchor="middle" style="font:.08px monospace;fill:#833">2</text><rect width=".05" height=".05" x=".343" y=".013" fill="red"/><text x=".328" y=".128" text-anchor="middle" style="font:.08px monospace;fill:#833">6</text><rect width=".05" height=".05" x=".343" y=".25" fill="red"/><text x=".328" y=".365" text-anchor="middle" style="font:.08px monospace;fill:#833">5</text><path fill="green" d="M -1.1102230246251565e-16 -0.0700000000000002 L 0.02499999999999989 -0.045000000000000207 L -1.1102230246251565e-16 -0.020000000000000205 L -0.025000000000000112 -0.045000000000000207 Z"/><text x="-.358" y="-.449" style="font:.05px monospace;fill:#833">0.72 x 0.99</text><text x="-.358" y="-.449" style="font:.05px monospace;fill:#833">0.72 x 0.99</text></svg>