<svg xmlns="http://www.w3.org/2000/svg" width="150" height="150" viewBox="-0.439 -0.501 0.877 1.001"><path fill="none" stroke="#000" stroke-linecap="round" stroke-linejoin="round" stroke-width=".02" d="M-0.3622268000000006,-0.06287995000000057 L-0.1357978000000004,-0.06287995000000057"/><path fill="none" stroke="#000" stroke-linecap="round" stroke-linejoin="round" stroke-width=".02" d="M-0.08500995000000007,-0.06934945000000092 L0.10307889999999986,-0.2010388500000011"/><path fill="none" stroke="#000" stroke-linecap="round" stroke-linejoin="round" stroke-width=".02" d="M0.12795640000000064,-0.06287995000000057 L0.36869780000000096,-0.06287995000000057"/><path fill="none" stroke="#000" stroke-linecap="round" stroke-linejoin="round" stroke-width=".02" d="M-0.3622270999999999,0.16866424999999907 L-0.1357980999999997,0.16866424999999907"/><path fill="none" stroke="#000" stroke-linecap="round" stroke-linejoin="round" stroke-width=".02" d="M-0.08500995000000007,0.16201947499999997 L0.10307860000000058,0.03050534999999921"/><path fill="none" stroke="#000" stroke-linecap="round" stroke-linejoin="round" stroke-width=".02" d="M0.12795610000000002,0.16866424999999907 L0.3686968000000006,0.16866424999999907"/><text x="0" y="-.417" dx="0" dy="0" text-anchor="middle" style="font:.1px monospace;fill:#000">{REF}</text><rect width=".025" height=".025" x="-.013" y="-.43" fill="#00f"/><text x="0" y=".417" dx="0" dy=".075" text-anchor="middle" style="font:.1px monospace;fill:#000">{VAL}</text><rect width=".025" height=".025" x="-.013" y=".405" fill="#00f"/><circle cx=".099" cy="-.065" r=".023" fill="none" stroke="#000" stroke-width=".02"/><circle cx=".099" cy=".17" r=".023" fill="none" stroke="#000" stroke-width=".02"/><circle cx="-.11" cy="-.065" r=".023" fill="none" stroke="#000" stroke-width=".02"/><circle cx="-.11" cy=".17" r=".023" fill="none" stroke="#000" stroke-width=".02"/><rect width=".05" height=".05" x="-.401" y=".145" fill="red"/><text x="-.416" y=".26" text-anchor="middle" style="font:.08px monospace;fill:#833">1</text><rect width=".05" height=".05" x="-.401" y="-.087" fill="red"/><text x="-.416" y=".028" text-anchor="middle" style="font:.08px monospace;fill:#833">3</text><rect width=".05" height=".05" x=".351" y=".144" fill="red"/><text x=".336" y=".259" text-anchor="middle" style="font:.08px monospace;fill:#833">2</text><rect width=".05" height=".05" x=".351" y="-.088" fill="red"/><text x=".336" y=".027" text-anchor="middle" style="font:.08px monospace;fill:#833">4</text><path fill="green" d="M -1.1102230246251565e-16 -0.025000000000000112 L 0.02499999999999989 -1.1102230246251565e-16 L -1.1102230246251565e-16 0.02499999999999989 L -0.025000000000000112 -1.1102230246251565e-16 Z"/><text x="-.365" y="-.417" style="font:.05px monospace;fill:#833">0.73 x 0.83</text><text x="-.365" y="-.417" style="font:.05px monospace;fill:#833">0.73 x 0.83</text></svg>