<svg xmlns="http://www.w3.org/2000/svg" xmlns:svg="http://www.w3.org/2000/svg" id="svg1" width="30mm" height="30mm" version="1.1" viewBox="0 0 30 30"><g id="root"><g id="inductor" transform="translate(-71.462633,-45.483698)"><title id="title8696">inductor</title><path id="path8698" d="m -60.531982,-84.964398 a 0.9958154,0.9958154 0 0 1 0.995815,0.995816 0.9958154,0.9958154 0 0 1 -0.995815,0.995815" transform="matrix(0,-1,-1,0,0,0)" style="fill:none;stroke:#000;stroke-width:.249346;stroke-linecap:round;stroke-linejoin:round"/><path id="path8700" d="m -60.531975,-86.956028 a 0.9958154,0.9958154 0 0 1 0.995816,0.995815 0.9958154,0.9958154 0 0 1 -0.995816,0.995816" transform="matrix(0,-1,-1,0,0,0)" style="fill:none;stroke:#000;stroke-width:.249346;stroke-linecap:round;stroke-linejoin:round"/><path id="path8702" d="m -60.531975,-88.947659 a 0.9958154,0.9958154 0 0 1 0.995816,0.995816 0.9958154,0.9958154 0 0 1 -0.995816,0.995815" transform="matrix(0,-1,-1,0,0,0)" style="fill:none;stroke:#000;stroke-width:.249346;stroke-linecap:round;stroke-linejoin:round"/><path id="path8704" d="m -60.531975,-90.939289 a 0.9958154,0.9958154 0 0 1 0.995816,0.995815 0.9958154,0.9958154 0 0 1 -0.995816,0.995816" transform="matrix(0,-1,-1,0,0,0)" style="fill:none;stroke:#000;stroke-width:.249346;stroke-linecap:round;stroke-linejoin:round"/><path style="fill:none;stroke:#000;stroke-width:.28118px;stroke-linecap:round;stroke-linejoin:miter;stroke-opacity:1" id="path8706" d="M 82.941462,60.519154 H 81.671158"/><title id="title8710">Inductor</title><circle style="fill:red;stroke:none;stroke-width:.264583;stroke-opacity:1" id="refblock-5-7-3-81-7-9" cx="81.46" cy="60.506" r=".282"/><text style="font-size:1.05971px;text-align:center;text-anchor:middle;fill:#000;stroke-width:.264927" id="text14-3-0-5-0-5-1" x="86.809" y="62.675" transform="scale(1.0013034,0.9986983)" xml:space="preserve"><tspan id="tspan14-1-4-0-4-8-3" x="86.809" y="62.675" style="font-size:1.05971px;text-align:center;text-anchor:middle;stroke-width:.264927">{VAL}</tspan></text><text style="font-size:1.05833px;text-align:center;text-anchor:middle;fill:#000;stroke-width:.264583" id="text14-3-0-5-0-5" x="86.924" y="57.994" xml:space="preserve"><tspan id="tspan14-1-4-0-4-8" x="86.924" y="57.994" style="font-size:1.05833px;text-align:center;text-anchor:middle;stroke-width:.264583">{REF}</tspan></text><path style="fill:none;stroke:#000;stroke-width:.28118px;stroke-linecap:round;stroke-linejoin:miter;stroke-opacity:1" id="path8706-5" d="M 92.226353,60.564824 H 90.956049"/><circle style="fill:red;stroke:none;stroke-width:.264583;stroke-opacity:1" id="refblock-5-7-3-81-7" cx="92.469" cy="60.559" r=".282"/></g></g></svg>