<svg xmlns="http://www.w3.org/2000/svg" width="150" height="150" viewBox="-0.677 -0.388 1.354 0.776"><path fill="none" stroke="#000" stroke-linecap="round" stroke-linejoin="round" stroke-width=".02" d="M0.13585750000000063,0.003696399999999045 L-0.12872579999999934,0.13598810000000228"/><path fill="none" stroke="#000" stroke-linecap="round" stroke-linejoin="round" stroke-width=".02" d="M0.12763670000000094,0.003920199999999596 L0.5265564000000009,0.003920199999999596"/><path fill="none" stroke="#000" stroke-linecap="round" stroke-linejoin="round" stroke-width=".02" d="M-0.12872579999999934,-0.12859530000000063 L0.13585750000000063,0.003696399999999045"/><path fill="none" stroke="#000" stroke-linecap="round" stroke-linejoin="round" stroke-width=".02" d="M-0.12872579999999934,0.13598810000000228 L-0.12872579999999934,-0.12859530000000063"/><path fill="none" stroke="#000" stroke-linecap="round" stroke-linejoin="round" stroke-width=".02" d="M0.13585750000000063,-0.12859530000000063 L0.13585750000000063,0.13598810000000228"/><path fill="none" stroke="#000" stroke-linecap="round" stroke-linejoin="round" stroke-width=".02" d="M-0.13076959999999938,0.003696399999999045 L-0.5256007999999994,0.003696399999999045"/><path fill="#000" stroke="#000" stroke-linecap="round" stroke-linejoin="round" stroke-width=".02" d="M0.1557438999999996,-0.28545279999999806 L0.2530861999999994,-0.3023319999999998 L0.21878339999999952,-0.20956920000000068"/><path fill="none" stroke="#000" stroke-linecap="round" stroke-linejoin="round" stroke-width=".02" d="M0.08000449999999937,-0.16590799999999817 L0.09202799999999911,-0.1748410000000007 L0.2137844999999996,-0.26529680000000155 L0.2144144999999993,-0.2662468000000011"/><path fill="#000" stroke="#000" stroke-linecap="round" stroke-linejoin="round" stroke-width=".02" d="M-0.021722400000000697,-0.30658939999999646 L0.07561989999999952,-0.3234685999999982 L0.04131709999999922,-0.23070579999999907"/><path fill="none" stroke="#000" stroke-linecap="round" stroke-linejoin="round" stroke-width=".02" d="M-0.09746180000000093,-0.18704459999999656 L-0.08543830000000074,-0.19597759999999909 L0.0363181999999993,-0.28643339999999995 L0.03694819999999943,-0.2873833999999995"/><text x="0" y=".213" dx="0" dy=".075" text-anchor="middle" style="font:.1px monospace;fill:#000">{VAL}</text><rect width=".025" height=".025" x="-.013" y=".201" fill="#00f"/><text x="0" y="-.409" dx="0" dy="0" text-anchor="middle" style="font:.1px monospace;fill:#000">{REF}</text><rect width=".025" height=".025" x="-.013" y="-.421" fill="#00f"/><rect width=".05" height=".05" x="-.561" y="-.021" fill="red"/><text x="-.576" y=".094" text-anchor="middle" style="font:.08px monospace;fill:#833">1</text><rect width=".05" height=".05" x=".511" y="-.02" fill="red"/><text x=".496" y=".095" text-anchor="middle" style="font:.08px monospace;fill:#833">2</text><path fill="green" d="M 3.3306690738754696e-16 -0.025 L 0.025000000000000334 0 L 3.3306690738754696e-16 0.025 L -0.02499999999999967 0 Z"/><text x="-.564" y="-.323" style="font:.05px monospace;fill:#833">1.13 x 0.65</text><text x="-.564" y="-.323" style="font:.05px monospace;fill:#833">1.13 x 0.65</text></svg>