<svg xmlns="http://www.w3.org/2000/svg" width="150" height="150" viewBox="-0.705 -0.351 1.411 0.701"><path fill="none" stroke="#000" stroke-linecap="round" stroke-linejoin="round" stroke-width=".02" d="M-0.53224045,0.0008545000000008685 L-0.26765715000000023,0.0008545000000008685"/><path fill="none" stroke="#000" stroke-linecap="round" stroke-linejoin="round" stroke-width=".02" d="M0.2615098499999995,0.0008545000000008685 L0.5260934499999994,0.0008545000000008685"/><path fill="none" stroke="#000" stroke-linecap="round" stroke-linejoin="round" stroke-width=".02" d="M-0.0030722500000006647,-0.1314371999999988 L0.2615107499999998,-0.1314371999999988 L0.2615107499999998,0.13314619999999877 L-0.26765624999999993,0.13314619999999877 L-0.26765624999999993,-0.1314371999999988 L-0.0030722499999988884,-0.1314371999999988"/><path fill="#000" stroke="#000" stroke-linecap="round" stroke-linejoin="round" stroke-width=".02" d="M0.2782993499999993,0.2822274 L0.17598844999999885,0.25486950000000164 L0.25094144999999823,0.1799165000000027"/><path fill="#000" stroke="#000" stroke-linecap="round" stroke-linejoin="round" stroke-width=".02" d="M0.2882692499999995,0.2921307000000013 L0.25467554999999953,0.16634940000000142 L0.16229264999999948,0.25853690000000284"/><path fill="none" stroke="#000" stroke-linecap="round" stroke-linejoin="round" stroke-width=".02" d="M-0.2985911500000009,-0.2921307000000013 L0.22988164999999938,0.2328032000000011"/><text x="0" y=".35" dx="0" dy=".075" text-anchor="middle" style="font:.1px monospace;fill:#000">{VAL}</text><rect width=".025" height=".025" x="-.013" y=".337" fill="#00f"/><text x="0" y="-.35" dx="0" dy="0" text-anchor="middle" style="font:.1px monospace;fill:#000">{REF}</text><rect width=".025" height=".025" x="-.013" y="-.362" fill="#00f"/><rect width=".05" height=".05" x="-.56" y="-.024" fill="red"/><text x="-.575" y=".091" text-anchor="middle" style="font:.08px monospace;fill:#833">1</text><rect width=".05" height=".05" x=".51" y="-.023" fill="red"/><text x=".495" y=".092" text-anchor="middle" style="font:.08px monospace;fill:#833">2</text><path fill="green" d="M -1.1102230246251565e-16 -0.025 L 0.02499999999999989 0 L -1.1102230246251565e-16 0.025 L -0.025000000000000112 0 Z"/><text x="-.588" y="-.292" style="font:.05px monospace;fill:#833">1.18 x 0.58</text><text x="-.588" y="-.292" style="font:.05px monospace;fill:#833">1.18 x 0.58</text></svg>