<svg xmlns="http://www.w3.org/2000/svg" xmlns:svg="http://www.w3.org/2000/svg" id="svg1" width="30mm" height="30mm" version="1.1" viewBox="0 0 30 30"><g id="root"><g id="potentiometer" transform="rotate(90,-19.246732,-62.458284)"><path style="fill:none;stroke:#000;stroke-width:.264583px;stroke-linecap:round;stroke-linejoin:miter;stroke-opacity:1" id="path40" d="m 80.697916,69.45832 1.322917,2.645833" transform="matrix(0.47759041,-0.47759041,0.47759041,0.47759041,-18.334611,-95.991506)"/><path style="fill:none;stroke:#000;stroke-width:.264583px;stroke-linecap:round;stroke-linejoin:miter;stroke-opacity:1" id="path41" d="M 79.374999,72.104153 80.697916,69.45832" transform="matrix(0.47759041,-0.47759041,0.47759041,0.47759041,-18.334611,-95.991506)"/><path style="fill:none;stroke:#000;stroke-width:.264583px;stroke-linecap:round;stroke-linejoin:miter;stroke-opacity:1" id="path42" d="M 82.020833,72.104153 H 79.374999" transform="matrix(0.47759041,-0.47759041,0.47759041,0.47759041,-18.334611,-95.991506)"/><path style="fill:none;stroke:#000;stroke-width:.264583px;stroke-linecap:round;stroke-linejoin:miter;stroke-opacity:1" id="path43" d="m 79.374999,69.45832 h 2.645834" transform="matrix(0.47759041,-0.47759041,0.47759041,0.47759041,-18.334611,-95.991506)"/><path style="fill:none;stroke:#000;stroke-width:.264583px;stroke-linecap:round;stroke-linejoin:miter;stroke-opacity:1" id="path44" d="m 80.697916,72.1262 v 3.946703" transform="matrix(0.47759041,-0.47759041,0.47759041,0.47759041,-18.334611,-95.991506)"/><path style="fill:none;stroke:#000;stroke-width:.264583px;stroke-linecap:round;stroke-linejoin:miter;stroke-opacity:1" id="path44-0" d="m 80.698768,65.670412 v 3.737081" transform="matrix(0.47759041,-0.47759041,0.47759041,0.47759041,-18.334611,-95.991506)"/><path style="fill:none;stroke:#000;stroke-width:.264583px;stroke-linecap:round;stroke-linejoin:miter;stroke-opacity:1" id="path40-4" d="m 80.697916,69.45832 1.322917,2.645833" transform="matrix(0.47759041,0.47759041,-0.47759041,0.47759041,54.506042,-173.07261)"/><path style="fill:none;stroke:#000;stroke-width:.264583px;stroke-linecap:round;stroke-linejoin:miter;stroke-opacity:1" id="path41-1" d="M 79.374999,72.104153 80.697916,69.45832" transform="matrix(0.47759041,0.47759041,-0.47759041,0.47759041,54.506042,-173.07261)"/><path style="fill:none;stroke:#000;stroke-width:.264583px;stroke-linecap:round;stroke-linejoin:miter;stroke-opacity:1" id="path42-7" d="M 82.020833,72.104153 H 79.374999" transform="matrix(0.47759041,0.47759041,-0.47759041,0.47759041,54.506042,-173.07261)"/><path style="fill:none;stroke:#000;stroke-width:.264583px;stroke-linecap:round;stroke-linejoin:miter;stroke-opacity:1" id="path43-1" d="m 79.374999,69.45832 h 2.645834" transform="matrix(0.47759041,0.47759041,-0.47759041,0.47759041,54.506042,-173.07261)"/><path style="fill:none;stroke:#000;stroke-width:.264583px;stroke-linecap:round;stroke-linejoin:miter;stroke-opacity:1" id="path44-8" d="m 80.697916,72.1262 v 3.946703" transform="matrix(0.47759041,0.47759041,-0.47759041,0.47759041,54.506042,-173.07261)"/><path style="fill:none;stroke:#000;stroke-width:.264583px;stroke-linecap:round;stroke-linejoin:miter;stroke-opacity:1" id="path44-0-7" d="m 80.698768,65.670412 v 3.737081" transform="matrix(0.47759041,0.47759041,-0.47759041,0.47759041,54.506042,-173.07261)"/><path style="fill:none;stroke:#000;stroke-width:.264583px;stroke-linecap:round;stroke-linejoin:miter;stroke-opacity:1" id="path40-4-0" d="m 80.697916,69.45832 1.322917,2.645833" transform="matrix(0.47759041,0.47759041,-0.47759041,0.47759041,49.354042,-178.22348)"/><path style="fill:none;stroke:#000;stroke-width:.264583px;stroke-linecap:round;stroke-linejoin:miter;stroke-opacity:1" id="path41-1-2" d="M 79.374999,72.104153 80.697916,69.45832" transform="matrix(0.47759041,0.47759041,-0.47759041,0.47759041,49.354042,-178.22348)"/><path style="fill:none;stroke:#000;stroke-width:.264583px;stroke-linecap:round;stroke-linejoin:miter;stroke-opacity:1" id="path42-7-1" d="M 82.020833,72.104153 H 79.374999" transform="matrix(0.47759041,0.47759041,-0.47759041,0.47759041,49.354042,-178.22348)"/><path style="fill:none;stroke:#000;stroke-width:.264583px;stroke-linecap:round;stroke-linejoin:miter;stroke-opacity:1" id="path43-1-8" d="m 79.374999,69.45832 h 2.645834" transform="matrix(0.47759041,0.47759041,-0.47759041,0.47759041,49.354042,-178.22348)"/><path style="fill:none;stroke:#000;stroke-width:.264583px;stroke-linecap:round;stroke-linejoin:miter;stroke-opacity:1" id="path44-8-7" d="m 80.697916,72.1262 v 3.946703" transform="matrix(0.47759041,0.47759041,-0.47759041,0.47759041,49.354042,-178.22348)"/><path style="fill:none;stroke:#000;stroke-width:.264583px;stroke-linecap:round;stroke-linejoin:miter;stroke-opacity:1" id="path44-0-7-1" d="m 80.698768,65.670412 v 3.737081" transform="matrix(0.47759041,0.47759041,-0.47759041,0.47759041,49.354042,-178.22348)"/><path style="fill:none;stroke:#000;stroke-width:.264583px;stroke-linecap:round;stroke-linejoin:miter;stroke-opacity:1" id="path40-4-8" d="m 80.697916,69.45832 1.322917,2.645833" transform="matrix(0.47759041,-0.47759041,0.47759041,0.47759041,-13.127037,-101.13681)"/><path style="fill:none;stroke:#000;stroke-width:.264583px;stroke-linecap:round;stroke-linejoin:miter;stroke-opacity:1" id="path41-1-4" d="M 79.374999,72.104153 80.697916,69.45832" transform="matrix(0.47759041,-0.47759041,0.47759041,0.47759041,-13.127037,-101.13681)"/><path style="fill:none;stroke:#000;stroke-width:.264583px;stroke-linecap:round;stroke-linejoin:miter;stroke-opacity:1" id="path42-7-0" d="M 82.020833,72.104153 H 79.374999" transform="matrix(0.47759041,-0.47759041,0.47759041,0.47759041,-13.127037,-101.13681)"/><path style="fill:none;stroke:#000;stroke-width:.264583px;stroke-linecap:round;stroke-linejoin:miter;stroke-opacity:1" id="path43-1-0" d="m 79.374999,69.45832 h 2.645834" transform="matrix(0.47759041,-0.47759041,0.47759041,0.47759041,-13.127037,-101.13681)"/><path style="fill:none;stroke:#000;stroke-width:.264583px;stroke-linecap:round;stroke-linejoin:miter;stroke-opacity:1" id="path44-8-9" d="m 80.697916,72.1262 v 3.946703" transform="matrix(0.47759041,-0.47759041,0.47759041,0.47759041,-13.127037,-101.13681)"/><path style="fill:none;stroke:#000;stroke-width:.264583px;stroke-linecap:round;stroke-linejoin:miter;stroke-opacity:1" id="path44-0-7-3" d="m 80.698768,65.670412 v 3.737081" transform="matrix(0.47759041,-0.47759041,0.47759041,0.47759041,-13.127037,-101.13681)"/><circle style="fill:red;stroke:none;stroke-width:.264583;stroke-opacity:1" id="refblock-5-7-3-81-7-1-1" cx="61.439" cy="-103.279" r=".282" transform="translate(0.40642425)"/><circle style="fill:red;stroke:none;stroke-width:.264583;stroke-opacity:1" id="refblock-5-7-3-81-7-1" cx="-59.25" cy="85.486" r=".282" transform="rotate(-90,-98.276751,-69.449018)"/><circle style="fill:red;stroke:none;stroke-width:.264583;stroke-opacity:1" id="refblock-5-7-3-81-7-9-3-5" cx="51.056" cy="-103.29" r=".282" transform="translate(0.40642425)"/><circle style="fill:red;stroke:none;stroke-width:.264583;stroke-opacity:1" id="refblock-5-7-3-81-7-9-3" cx="-69.633" cy="85.476" r=".282" transform="rotate(-90,-98.276751,-69.449018)"/><text style="font-size:.714812px;text-align:center;text-anchor:middle;fill:#000;stroke-width:.178703" id="text14-3-0-5-0-5-1-0" x="100.412" y="61.614" transform="rotate(-90)" xml:space="preserve"><tspan id="tspan14-1-4-0-4-8-3-3" x="100.412" y="61.614" style="font-size:.714812px;text-align:center;text-anchor:middle;stroke-width:.178703">{VAL}</tspan></text><text style="font-size:.714812px;text-align:center;text-anchor:middle;fill:#000;stroke-width:.178703" id="text14-3-0-5-0-5" x="100.412" y="52.089" transform="rotate(-90)" xml:space="preserve"><tspan id="tspan14-1-4-0-4-8" x="100.412" y="52.089" style="font-size:.714812px;text-align:center;text-anchor:middle;stroke-width:.178703">{REF}</tspan></text></g></g></svg>