<svg xmlns="http://www.w3.org/2000/svg" width="150" height="150" viewBox="-0.624 -0.373 1.248 0.657"><path fill="none" stroke="#000" stroke-linecap="round" stroke-linejoin="round" stroke-width=".02" d="M0.14458930000000048,-0.04403649999999937 L-0.11999399999999905,0.0882552000000012"/><path fill="none" stroke="#000" stroke-linecap="round" stroke-linejoin="round" stroke-width=".02" d="M-0.11999400000000038,-0.1763281999999997 L0.14458929999999914,-0.04403649999999937"/><path fill="none" stroke="#000" stroke-linecap="round" stroke-linejoin="round" stroke-width=".02" d="M-0.11999400000000038,0.0882552000000012 L-0.11999400000000038,-0.17632819999999816"/><path fill="none" stroke="#000" stroke-linecap="round" stroke-linejoin="round" stroke-width=".02" d="M0.1435300000000006,-0.17844679999999968 L0.14458899999999986,0.08825519999999965"/><path fill="none" stroke="#000" stroke-linecap="round" stroke-linejoin="round" stroke-width=".02" d="M-0.12219870000000044,-0.04403649999999937 L-0.5168690000000005,-0.04403649999999937"/><path fill="none" stroke="#000" stroke-linecap="round" stroke-linejoin="round" stroke-width=".02" d="M0.5233800999999991,-0.043951299999999804 L0.14967199999999892,-0.043951299999999804"/><path fill="none" stroke="#000" stroke-linecap="round" stroke-linejoin="round" stroke-width=".02" d="M0.2075533999999999,-0.17973149999999904 L0.14341080000000028,-0.17864949999999946"/><path fill="none" stroke="#000" stroke-linecap="round" stroke-linejoin="round" stroke-width=".02" d="M0.2093444999999996,-0.1301679 L0.20797049999999984,-0.17950350000000048"/><path fill="none" stroke="#000" stroke-linecap="round" stroke-linejoin="round" stroke-width=".02" d="M0.07978989999999953,0.09023340000000024 L0.14313979999999948,0.09001340000000013"/><path fill="none" stroke="#000" stroke-linecap="round" stroke-linejoin="round" stroke-width=".02" d="M0.07764390000000043,0.04104850000000004 L0.0790179000000002,0.09038410000000074"/><text x="-.005" y="-.274" dx="0" dy="0" text-anchor="middle" style="font:.1px monospace;fill:#000">{REF}</text><rect width=".025" height=".025" x="-.018" y="-.286" fill="#00f"/><text x="0" y=".274" dx="0" dy=".075" text-anchor="middle" style="font:.1px monospace;fill:#000">{VAL}</text><rect width=".025" height=".025" x="-.013" y=".261" fill="#00f"/><rect width=".05" height=".05" x="-.544" y="-.07" fill="red"/><text x="-.559" y=".045" text-anchor="middle" style="font:.08px monospace;fill:#833">1</text><rect width=".05" height=".05" x=".494" y="-.069" fill="red"/><text x=".479" y=".046" text-anchor="middle" style="font:.08px monospace;fill:#833">2</text><path fill="green" d="M -5.551115123125783e-17 -0.0694084499999996 L 0.024999999999999946 -0.0444084499999996 L -5.551115123125783e-17 -0.019408449999999598 L -0.025000000000000057 -0.0444084499999996 Z"/><text x="-.52" y="-.229" style="font:.05px monospace;fill:#833">1.04 x 0.55</text><text x="-.52" y="-.279" dy="-.15" style="font:.05px monospace;fill:#833">1 [pos]</text><text x="-.52" y="-.329" dy="-.15" style="font:.05px monospace;fill:#833">2 [neg]</text><text x="-.52" y="-.229" style="font:.05px monospace;fill:#833">1.04 x 0.55</text><text x="-.52" y="-.279" dy="-.15" style="font:.05px monospace;fill:#833">1 [pos]</text><text x="-.52" y="-.329" dy="-.15" style="font:.05px monospace;fill:#833">2 [neg]</text></svg>