<svg xmlns="http://www.w3.org/2000/svg" width="150" height="150" viewBox="-0.429 -0.446 0.858 0.892"><path fill="none" stroke="#000" stroke-linecap="round" stroke-linejoin="round" stroke-width=".02" d="M-0.3543583500000005,-0.03204385000000087 L-0.12792935000000005,-0.03204385000000087"/><path fill="none" stroke="#000" stroke-linecap="round" stroke-linejoin="round" stroke-width=".02" d="M-0.0733669500000003,-0.0261987500000005 L0.10908324999999996,0.029100155000000048"/><path fill="none" stroke="#000" stroke-linecap="round" stroke-linejoin="round" stroke-width=".02" d="M0.1043477500000003,0.0645130499999993 L0.34508875000000017,0.0645130499999993"/><path fill="none" stroke="#000" stroke-linecap="round" stroke-linejoin="round" stroke-width=".02" d="M0.12008575000000055,-0.17214665000000062 L0.3608267500000004,-0.17214665000000062"/><text x="0" y="-.372" dx="0" dy="0" text-anchor="middle" style="font:.1px monospace;fill:#000">{REF}</text><rect width=".025" height=".025" x="-.013" y="-.384" fill="#00f"/><text x="0" y=".372" dx="0" dy=".075" text-anchor="middle" style="font:.1px monospace;fill:#000">{VAL}</text><rect width=".025" height=".025" x="-.013" y=".359" fill="#00f"/><circle cx=".082" cy=".065" r=".023" fill="none" stroke="#000" stroke-width=".02"/><circle cx="-.099" cy="-.028" r=".023" fill="none" stroke="#000" stroke-width=".02"/><circle cx=".082" cy="-.173" r=".023" fill="none" stroke="#000" stroke-width=".02"/><rect width=".05" height=".05" x="-.393" y="-.057" fill="red"/><text x="-.408" y=".058" text-anchor="middle" style="font:.08px monospace;fill:#833">1</text><rect width=".05" height=".05" x=".343" y=".04" fill="red"/><text x=".328" y=".155" text-anchor="middle" style="font:.08px monospace;fill:#833">3</text><rect width=".05" height=".05" x=".343" y="-.197" fill="red"/><text x=".328" y="-.082" text-anchor="middle" style="font:.08px monospace;fill:#833">2</text><path fill="green" d="M 0 -0.025000000000000112 L 0.025 -1.1102230246251565e-16 L 0 0.02499999999999989 L -0.025 -1.1102230246251565e-16 Z"/><text x="-.358" y="-.372" style="font:.05px monospace;fill:#833">0.72 x 0.74</text><text x="-.358" y="-.372" style="font:.05px monospace;fill:#833">0.72 x 0.74</text></svg>