<svg xmlns="http://www.w3.org/2000/svg" width="150" height="150" viewBox="-0.788 -0.777 1.176 1.404"><path fill="none" stroke="#000" stroke-linecap="round" stroke-linejoin="round" stroke-width=".02" d="M-0.44,-0.34 L-0.45,-0.39 L-0.465,-0.42 L-0.49,-0.44 L-0.52,-0.455 L-0.56,-0.46 L-0.6,-0.455 L-0.63,-0.44 L-0.655,-0.42 L-0.67,-0.39 L-0.68,-0.34 L-0.68,0.34 L-0.67,0.39 L-0.655,0.42 L-0.63,0.44 L-0.6,0.455 L-0.56,0.46 L-0.52,0.455 L-0.49,0.44 L-0.465,0.42 L-0.45,0.39 L-0.44,0.34 L-0.44,-0.34"/><path fill="#000" stroke="#000" stroke-linecap="round" stroke-linejoin="round" stroke-width=".02" d="M-0.51,-0.275 L-0.52,-0.32 L-0.535,-0.34 L-0.555,-0.35 L-0.57,-0.35 L-0.585,-0.34 L-0.6,-0.32 L-0.61,-0.275 L-0.61,0.275 L-0.6,0.32 L-0.585,0.34 L-0.57,0.35 L-0.555,0.35 L-0.535,0.34 L-0.52,0.32 L-0.51,0.275 L-0.51,-0.275"/><path fill="none" stroke="#000" stroke-linecap="round" stroke-linejoin="round" stroke-width=".02" d="M0.1,0.4 L0.1,-0.4"/><path fill="none" stroke="#000" stroke-linecap="round" stroke-linejoin="round" stroke-width=".02" d="M0.1,0.1 L-0.03,-0.05 L-0.03,-0.15"/><path fill="none" stroke="#000" stroke-linecap="round" stroke-linejoin="round" stroke-width=".02" d="M0.1,0 L0.25,-0.15 L0.25,-0.25"/><path fill="#000" stroke="#000" stroke-linecap="round" stroke-linejoin="round" stroke-width=".02" d="M0.05,-0.4 L0.1,-0.5 L0.15,-0.4 L0.05,-0.4"/><path fill="#000" stroke="#000" stroke-linecap="round" stroke-linejoin="round" stroke-width=".02" d="M0.2,-0.25 L0.3,-0.25 L0.3,-0.35 L0.2,-0.35 L0.2,-0.25"/><text x="-.25" y="-.7" dx="0" dy="0" text-anchor="middle" style="font:.1px monospace;fill:#000">{REF}</text><rect width=".025" height=".025" x="-.263" y="-.712" fill="#00f"/><circle cx=".1" cy=".4" r=".07" fill="#000"/><circle cx="-.03" cy="-.15" r=".04" fill="#000"/><path fill="green" d="M -0.2 -0.1 L -0.17500000000000002 -0.075 L -0.2 -0.049999999999999996 L -0.225 -0.075 Z"/><text x="-.69" y="-.51" style="font:.05px monospace;fill:#833">0.98 x 1.17</text><text x="-.69" y="-.51" style="font:.05px monospace;fill:#833">0.98 x 1.17</text></svg>